<mxfile host="app.diagrams.net" agent="Mozilla/5.0 (Windows NT 10.0; Win64; x64) AppleWebKit/537.36 (KHTML, like Gecko) Chrome/122.0.0.0 Safari/537.36" version="26.2.13">
  <diagram id="C5RBs43oDa-KdzZeNtuy" name="Page-1">
    <mxGraphModel dx="1305" dy="703" grid="1" gridSize="10" guides="1" tooltips="1" connect="1" arrows="1" fold="1" page="1" pageScale="1" pageWidth="827" pageHeight="1169" math="0" shadow="0">
      <root>
        <mxCell id="WIyWlLk6GJQsqaUBKTNV-0" />
        <mxCell id="WIyWlLk6GJQsqaUBKTNV-1" parent="WIyWlLk6GJQsqaUBKTNV-0" />
        <mxCell id="mBkTvggeXIjrDRLyLJQo-9" value="Admin Flow" style="text;html=1;align=center;verticalAlign=middle;whiteSpace=wrap;rounded=0;fontSize=22;fontStyle=1" vertex="1" parent="WIyWlLk6GJQsqaUBKTNV-1">
          <mxGeometry x="14" y="50" width="230" height="30" as="geometry" />
        </mxCell>
        <mxCell id="mBkTvggeXIjrDRLyLJQo-12" value="1. User Registration" style="text;html=1;align=center;verticalAlign=middle;whiteSpace=wrap;rounded=0;fontSize=17;fontStyle=1" vertex="1" parent="WIyWlLk6GJQsqaUBKTNV-1">
          <mxGeometry x="53" y="130" width="185" height="30" as="geometry" />
        </mxCell>
        <mxCell id="mBkTvggeXIjrDRLyLJQo-13" value="" style="edgeStyle=orthogonalEdgeStyle;rounded=0;orthogonalLoop=1;jettySize=auto;html=1;" edge="1" parent="WIyWlLk6GJQsqaUBKTNV-1" source="mBkTvggeXIjrDRLyLJQo-14" target="mBkTvggeXIjrDRLyLJQo-16">
          <mxGeometry relative="1" as="geometry" />
        </mxCell>
        <mxCell id="mBkTvggeXIjrDRLyLJQo-14" value="Start" style="rounded=1;whiteSpace=wrap;html=1;" vertex="1" parent="WIyWlLk6GJQsqaUBKTNV-1">
          <mxGeometry x="71" y="188" width="120" height="50" as="geometry" />
        </mxCell>
        <mxCell id="mBkTvggeXIjrDRLyLJQo-15" value="" style="edgeStyle=orthogonalEdgeStyle;rounded=0;orthogonalLoop=1;jettySize=auto;html=1;" edge="1" parent="WIyWlLk6GJQsqaUBKTNV-1" source="mBkTvggeXIjrDRLyLJQo-16" target="mBkTvggeXIjrDRLyLJQo-19">
          <mxGeometry relative="1" as="geometry" />
        </mxCell>
        <mxCell id="mBkTvggeXIjrDRLyLJQo-16" value="Select &quot;User Management&quot;" style="whiteSpace=wrap;html=1;rounded=1;" vertex="1" parent="WIyWlLk6GJQsqaUBKTNV-1">
          <mxGeometry x="71" y="276" width="120" height="50" as="geometry" />
        </mxCell>
        <mxCell id="mBkTvggeXIjrDRLyLJQo-17" value="" style="edgeStyle=orthogonalEdgeStyle;rounded=0;orthogonalLoop=1;jettySize=auto;html=1;" edge="1" parent="WIyWlLk6GJQsqaUBKTNV-1" source="mBkTvggeXIjrDRLyLJQo-19" target="mBkTvggeXIjrDRLyLJQo-21">
          <mxGeometry relative="1" as="geometry" />
        </mxCell>
        <mxCell id="mBkTvggeXIjrDRLyLJQo-18" value="" style="edgeStyle=orthogonalEdgeStyle;rounded=0;orthogonalLoop=1;jettySize=auto;html=1;" edge="1" parent="WIyWlLk6GJQsqaUBKTNV-1" source="mBkTvggeXIjrDRLyLJQo-19" target="mBkTvggeXIjrDRLyLJQo-23">
          <mxGeometry relative="1" as="geometry" />
        </mxCell>
        <mxCell id="mBkTvggeXIjrDRLyLJQo-19" value="Choose Action" style="whiteSpace=wrap;html=1;rounded=1;" vertex="1" parent="WIyWlLk6GJQsqaUBKTNV-1">
          <mxGeometry x="71" y="366" width="120" height="55" as="geometry" />
        </mxCell>
        <mxCell id="mBkTvggeXIjrDRLyLJQo-20" value="" style="edgeStyle=orthogonalEdgeStyle;rounded=0;orthogonalLoop=1;jettySize=auto;html=1;" edge="1" parent="WIyWlLk6GJQsqaUBKTNV-1" source="mBkTvggeXIjrDRLyLJQo-21" target="mBkTvggeXIjrDRLyLJQo-22">
          <mxGeometry relative="1" as="geometry" />
        </mxCell>
        <mxCell id="mBkTvggeXIjrDRLyLJQo-25" value="" style="edgeStyle=orthogonalEdgeStyle;rounded=0;orthogonalLoop=1;jettySize=auto;html=1;" edge="1" parent="WIyWlLk6GJQsqaUBKTNV-1" source="mBkTvggeXIjrDRLyLJQo-21" target="mBkTvggeXIjrDRLyLJQo-24">
          <mxGeometry relative="1" as="geometry" />
        </mxCell>
        <mxCell id="mBkTvggeXIjrDRLyLJQo-21" value="Enter User Details" style="whiteSpace=wrap;html=1;rounded=1;" vertex="1" parent="WIyWlLk6GJQsqaUBKTNV-1">
          <mxGeometry x="71" y="466" width="120" height="60" as="geometry" />
        </mxCell>
        <mxCell id="mBkTvggeXIjrDRLyLJQo-27" value="" style="edgeStyle=orthogonalEdgeStyle;rounded=0;orthogonalLoop=1;jettySize=auto;html=1;" edge="1" parent="WIyWlLk6GJQsqaUBKTNV-1" source="mBkTvggeXIjrDRLyLJQo-22" target="mBkTvggeXIjrDRLyLJQo-26">
          <mxGeometry relative="1" as="geometry" />
        </mxCell>
        <mxCell id="mBkTvggeXIjrDRLyLJQo-29" value="" style="edgeStyle=orthogonalEdgeStyle;rounded=0;orthogonalLoop=1;jettySize=auto;html=1;" edge="1" parent="WIyWlLk6GJQsqaUBKTNV-1" source="mBkTvggeXIjrDRLyLJQo-22" target="mBkTvggeXIjrDRLyLJQo-28">
          <mxGeometry relative="1" as="geometry" />
        </mxCell>
        <mxCell id="mBkTvggeXIjrDRLyLJQo-22" value="Validate Input" style="whiteSpace=wrap;html=1;rounded=1;" vertex="1" parent="WIyWlLk6GJQsqaUBKTNV-1">
          <mxGeometry x="71" y="571" width="120" height="50" as="geometry" />
        </mxCell>
        <mxCell id="mBkTvggeXIjrDRLyLJQo-23" value="&lt;div&gt;Register / Edit / Delete User&lt;br&gt;&lt;/div&gt;" style="whiteSpace=wrap;html=1;rounded=1;" vertex="1" parent="WIyWlLk6GJQsqaUBKTNV-1">
          <mxGeometry x="271" y="363.5" width="142" height="60" as="geometry" />
        </mxCell>
        <mxCell id="mBkTvggeXIjrDRLyLJQo-24" value="Name, Role (SM / PM / IM / FM / Admin), Username, Password" style="whiteSpace=wrap;html=1;rounded=1;" vertex="1" parent="WIyWlLk6GJQsqaUBKTNV-1">
          <mxGeometry x="271" y="466" width="139" height="60" as="geometry" />
        </mxCell>
        <mxCell id="mBkTvggeXIjrDRLyLJQo-26" value="Ensure Unique ID" style="whiteSpace=wrap;html=1;rounded=1;" vertex="1" parent="WIyWlLk6GJQsqaUBKTNV-1">
          <mxGeometry x="280.5" y="566" width="120" height="60" as="geometry" />
        </mxCell>
        <mxCell id="mBkTvggeXIjrDRLyLJQo-31" value="" style="edgeStyle=orthogonalEdgeStyle;rounded=0;orthogonalLoop=1;jettySize=auto;html=1;" edge="1" parent="WIyWlLk6GJQsqaUBKTNV-1" source="mBkTvggeXIjrDRLyLJQo-28" target="mBkTvggeXIjrDRLyLJQo-30">
          <mxGeometry relative="1" as="geometry" />
        </mxCell>
        <mxCell id="mBkTvggeXIjrDRLyLJQo-28" value="Save / Update" style="whiteSpace=wrap;html=1;rounded=1;" vertex="1" parent="WIyWlLk6GJQsqaUBKTNV-1">
          <mxGeometry x="71" y="696" width="120" height="60" as="geometry" />
        </mxCell>
        <mxCell id="mBkTvggeXIjrDRLyLJQo-30" value="End" style="whiteSpace=wrap;html=1;rounded=1;" vertex="1" parent="WIyWlLk6GJQsqaUBKTNV-1">
          <mxGeometry x="71" y="836" width="120" height="60" as="geometry" />
        </mxCell>
        <mxCell id="mBkTvggeXIjrDRLyLJQo-32" value="&lt;b&gt;Admin will access all to see all data and modify&lt;/b&gt;" style="text;html=1;align=center;verticalAlign=middle;resizable=0;points=[];autosize=1;strokeColor=none;fillColor=none;" vertex="1" parent="WIyWlLk6GJQsqaUBKTNV-1">
          <mxGeometry x="490" y="326" width="290" height="30" as="geometry" />
        </mxCell>
        <mxCell id="mBkTvggeXIjrDRLyLJQo-33" value="&lt;b&gt;Last to do&lt;/b&gt;" style="text;html=1;align=center;verticalAlign=middle;resizable=0;points=[];autosize=1;strokeColor=none;fillColor=none;" vertex="1" parent="WIyWlLk6GJQsqaUBKTNV-1">
          <mxGeometry x="490" y="356" width="80" height="30" as="geometry" />
        </mxCell>
      </root>
    </mxGraphModel>
  </diagram>
</mxfile>
